<?xml version="1.0" encoding="utf-8"?>
<!-- Generator: Adobe Illustrator 28.1.0, SVG Export Plug-In . SVG Version: 6.00 Build 0)  -->
<svg version="1.1" id="Layer_1" xmlns="http://www.w3.org/2000/svg" xmlns:xlink="http://www.w3.org/1999/xlink" x="0px" y="0px"
	 viewBox="0 0 259.8 72" style="enable-background:new 0 0 259.8 72;" xml:space="preserve">
<style type="text/css">
	.st0{fill:#00244E;}
	.st1{fill:#FFFFFF;}
	.st2{fill:#009DEA;}
	.st3{fill:#FDB913;}
</style>
<path class="st0" d="M84.7,13.3c0-4-9.1-1.7-9.1-7.8c0-3.4,3-4.8,6.2-4.8c1.8,0,3.6,0.3,5.3,0.9v3.6h-1.9c-0.1-1.7-2-2.5-3.6-2.5
	c-1.9,0-2.9,1-2.9,2.4c0,3.7,9.1,1.5,9.1,7.6c0,3.6-2.9,5.4-6.4,5.4c-1.9-0.1-3.9-0.4-5.7-1.1v-3.9h2c0.2,1.9,1.6,2.7,3.8,2.7
	C83.1,16.1,84.5,14.9,84.7,13.3z M102.2,11.5c0,4.8-2.9,6.7-6.4,6.7s-6.4-1.8-6.4-6.7c0-4.8,2.9-6.7,6.4-6.7
	C99.3,4.9,102.2,6.8,102.2,11.5z M99.3,11.5c0-2.8-0.9-4.5-3.4-4.5s-3.4,1.8-3.4,4.5s0.9,4.6,3.4,4.6S99.3,14.3,99.3,11.5L99.3,11.5
	z M108.3,18.2c1.7-0.1,3.3-0.7,4.7-1.7c0.4,1.4,1.4,1.6,2.5,1.6c0.6,0,1.2-0.1,1.8-0.2v-1.8h-0.6c-0.7,0-1-0.3-1-1.1V5.2h-4.6V7h1.1
	c0.3,0,0.6,0,0.6,0.4v7.3c-1,0.7-2.2,1.1-3.4,1.1c-1.3,0-2-0.5-2-2.1V5.2H103V7h0.9c0.3,0,0.6,0,0.6,0.5v6.9
	C104.6,17.2,106.3,18.2,108.3,18.2z M122.7,7.2h4v-2h-4v-3h-1.9c-0.3,1.9-0.8,3-2.5,3.4v1.6h1.5v7.6c0,2.8,1.9,3.5,3.6,3.5
	c1,0,2-0.1,3-0.4v-2.2c-0.6,0.2-1.2,0.3-1.8,0.3c-1.1,0-1.9-0.4-1.9-1.8L122.7,7.2z M141.5,16.1c-0.4,0-0.6,0-0.6-0.6V8.7
	c0.2-1.9-1.1-3.6-3-3.8c-0.2,0-0.5,0-0.7,0c-1.6,0.1-3.2,0.6-4.6,1.6V0h-4.5v1.8h1c0.4,0,0.6,0,0.6,0.6v13.2c0,0.5-0.3,0.5-0.6,0.5
	h-0.9v1.8h6v-1.8h-1.5V8.3c1-0.6,2.1-1,3.3-1.1c1.4,0,2.1,0.5,2.1,2V16h-1.5v1.8h6V16L141.5,16.1z M155.1,12.2h-8.5
	c0,2.7,1.2,3.9,3.5,3.9c1.2,0,2.9-0.3,3.5-2.1h1.3v3c-1.6,0.7-3.2,1.1-4.9,1.2c-4.1,0-6.4-2-6.4-6.7c0-4.4,2.3-6.6,6.1-6.6
	c4.5,0,5.5,3,5.5,6.2L155.1,12.2z M152.4,10.4c0-1.6-0.4-3.5-2.8-3.5c-2.1,0-3,1.5-3,3.5H152.4z M158.5,15.6c0,0.5-0.2,0.6-0.6,0.6
	h-1V18h6.1v-1.8h-1.6v-7c1.4-0.4,2.8-0.8,4.2-1.1V4.9c-0.3,0-2.2,0.4-4.3,2.6V5.2H157V7h1c0.4,0,0.6,0,0.6,0.6L158.5,15.6z
	 M168.7,15.6c0,0.5-0.3,0.6-0.6,0.6h-1V18h6v-1.8h-1.5V8.3c1-0.7,2.1-1.1,3.3-1.2c1-0.2,2,0.5,2.1,1.6c0,0.2,0,0.4,0,0.6v6.8h-1.5
	v1.8h6v-1.8h-1c-0.4,0-0.6,0-0.6-0.6V8.7c0-2.8-1.7-3.8-3.7-3.8c-1.7,0.1-3.3,0.6-4.7,1.6V5.2h-4.4V7h1c0.4,0,0.6,0,0.6,0.6
	L168.7,15.6z M80.6,25.3h-4.9v1.9h0.9c0.5,0,0.7,0.3,0.7,0.7v11.7c0,0.4-0.1,0.7-0.7,0.7h-0.8v1.9h5.7v-1.9H80V29.8l7.7,12.4H91
	V27.9c0-0.4,0.2-0.7,0.7-0.7h0.9v-1.9h-5.7v1.9h1.5v10.6L80.6,25.3z M105.1,36.5h-8.5c0,2.7,1.2,3.9,3.5,3.9c1.2,0,2.9-0.3,3.5-2.1
	h1.3v3c-1.6,0.7-3.2,1.1-4.9,1.2c-4.1,0-6.4-2-6.4-6.7c0-4.4,2.3-6.6,6.1-6.6c4.5,0,5.5,3,5.5,6.2L105.1,36.5z M102.3,34.7
	c0-1.6-0.4-3.5-2.8-3.5c-2.1,0-3,1.5-3,3.5H102.3z M107.4,31.3c0.4,0,0.6,0,0.6,0.5v5.9c0,3.4,1.4,4.7,3.8,4.7
	c1.7,0,3.3-0.6,4.5-1.8h0.1c1.1,1.2,2.6,1.9,4.2,1.8c2.7,0,5.3-1.3,5.3-4.5v-6.3c0-0.4,0.3-0.5,0.6-0.5h1v-1.8h-6v1.8h1.5V38
	c0,1.2-1,2.2-2.2,2.1l0,0c-1.2,0.1-2.2-0.7-2.4-1.8c0-0.1,0-0.2,0-0.4v-8.7h-4.6V31h1.8v6.8c0,0.3,0,0.6,0.1,1
	c-0.9,0.7-1.9,1.1-3,1.2c-1.1,0-1.9-0.7-1.9-2.3v-8.5h-4.5V31L107.4,31.3z M146.8,40.3h-1.5v1.9h6.1v-1.9h-0.8
	c-0.6,0-0.7-0.3-0.7-0.7V27.9c0-0.4,0.1-0.7,0.7-0.7h0.8v-1.9h-6.1v1.9h1.5v5.1h-7.6v-5.1h1.5v-1.9h-6.1v1.9h0.9
	c0.5,0,0.7,0.3,0.7,0.7v11.7c0,0.4-0.2,0.7-0.7,0.7h-0.8v1.9h6.1v-1.9h-1.5v-5.7h7.6L146.8,40.3z M165,40.4v1.8
	c-0.6,0.1-1.2,0.2-1.8,0.2c-1,0.2-2.1-0.4-2.4-1.4c-1.2,0.9-2.6,1.4-4.1,1.4c-2,0.2-3.7-1.3-3.9-3.3c0-0.1,0-0.3,0-0.4
	c0-2.1,1.6-3.8,4.9-3.8h2.8v-1.6c0-1.2-0.9-2.1-2.1-2.2c-0.1,0-0.2,0-0.3,0c-1.3-0.2-2.5,0.6-2.9,1.9h-1.6v-3.1
	c1.5-0.4,3.1-0.7,4.7-0.7c3.1,0,5.1,1.4,5.1,4.6v5.7c0,0.5,0.3,0.9,1,0.9L165,40.4z M160.6,36.5h-2.3c-1.4,0-2.6,0.4-2.6,1.9
	c-0.1,0.9,0.7,1.7,1.6,1.8c0.1,0,0.2,0,0.3,0c1.1,0,2.1-0.4,2.9-1L160.6,36.5z M168.1,39.9c0,0.5-0.3,0.5-0.6,0.5h-1v1.8h6v-1.8H171
	v-7.8c0.9-0.6,1.9-1,3-1.1c1.4,0,2.1,0.6,2.1,2.1v6.8h-1.3v1.8h5.7v-1.8H179v-7.8c0.9-0.6,1.9-1,3-1.1c1.4,0,2,0.6,2,2.1v6.8h-1.3
	v1.8h5.7v-1.8h-0.9c-0.5,0-0.7-0.1-0.7-0.7v-6.8c0.2-1.9-1.2-3.6-3.1-3.8c-0.2,0-0.5,0-0.7,0c-1.7,0.1-3.2,0.7-4.5,1.8
	c-0.7-1.2-2-1.9-3.4-1.8c-1.5,0.1-3,0.6-4.2,1.6v-1.3h-4.4v1.8h1c0.4,0,0.6,0,0.6,0.5L168.1,39.9z M202.8,35.5c0,5.2-2.6,6.9-6,6.9
	c-1,0-2.1-0.2-3.1-0.4v3.6h1.6v1.8h-6.1v-1.8h1c0.4,0,0.6,0,0.6-0.5V31.8c0-0.5-0.3-0.5-0.6-0.5h-1v-1.8h4.4v1.2
	c1.3-0.9,2.8-1.5,4.4-1.5C200.6,29.1,202.8,30.8,202.8,35.5L202.8,35.5z M199.9,35.6c0-3.1-1.1-4.3-2.7-4.3
	c-1.2,0.1-2.4,0.5-3.4,1.2V40c0.8,0.2,1.6,0.4,2.4,0.4C199.1,40.4,199.9,38.6,199.9,35.6L199.9,35.6z M213.9,29.6
	c-1.3-0.3-2.6-0.5-3.9-0.5c-2.9,0-5.2,1-5.2,3.8c0,2.5,1.9,3.2,3.7,3.7c1.4,0.4,2.9,0.8,2.9,2.1c0,1.5-1.1,2-2.4,2
	c-1.2,0-2.3-0.7-2.7-1.9h-1.6v3c1.4,0.4,2.9,0.7,4.3,0.7c2.9,0,5.3-1.2,5.3-4.3c0-2.7-2-3.3-3.8-3.8c-1.5-0.4-2.9-0.6-2.9-1.9
	c0-0.9,0.8-1.6,2.1-1.6c1.1-0.1,2.2,0.5,2.7,1.5h1.4L213.9,29.6z M229.1,40.4c-0.4,0-0.6,0-0.6-0.6v-6.9c0.2-1.9-1.1-3.6-3-3.8
	c-0.2,0-0.5,0-0.7,0c-1.6,0.1-3.2,0.6-4.5,1.6v-6.5h-4.5V26h1c0.4,0,0.6,0,0.6,0.6v13.2c0,0.5-0.3,0.5-0.6,0.5h-0.9v1.8h6v-1.8h-1.5
	v-7.7c1-0.6,2.1-1,3.3-1.1c1.4,0,2.1,0.5,2.1,2v6.8h-1.5v1.8h6v-1.8L229.1,40.4z M236.2,40.4c-0.7,0-0.9-0.4-0.9-1.2v-9.7h-4.5v1.8
	h1c0.4,0,0.6,0.1,0.6,0.6v8c0,1.9,1,2.6,2.9,2.6c0.5,0,1.1-0.1,1.6-0.1v-1.9C236.8,40.4,236.2,40.4,236.2,40.4L236.2,40.4z
	 M232.3,26.9h3v-2.6h-3V26.9z M240.1,39.8c0,0.5-0.2,0.6-0.6,0.6h-1v1.8h6.1v-1.8H243v-6.9c1.4-0.4,2.8-0.8,4.2-1.1v-3.1
	c-0.3,0-2.2,0.4-4.3,2.6v-2.3h-4.3v1.8h1c0.4,0,0.6,0,0.6,0.6L240.1,39.8z M259.8,36.5h-8.5c0,2.7,1.2,3.9,3.5,3.9
	c1.2,0,2.9-0.3,3.5-2.1h1.3v3c-1.6,0.7-3.2,1.1-4.9,1.2c-4.1,0-6.4-2-6.4-6.7c0-4.4,2.3-6.6,6.1-6.6c4.5,0,5.5,3,5.5,6.2L259.8,36.5
	z M257.1,34.7c0-1.6-0.4-3.5-2.8-3.5c-2.1,0-3,1.5-3,3.5H257.1z M91.1,52.3v-1.9h-5.3v1.9h1.4v9.4c0,3-2.1,3.6-3.7,3.6
	c-1.7,0-3.7-0.5-3.7-3.6v-9.4h1.5v-1.9h-5.8v1.9h0.8c0.3,0,0.6,0.2,0.6,0.5v0.1v8.5c0,4.1,2,6.1,6.5,6.1c4.3,0,6.5-1.9,6.5-6.1v-8.5
	c0-0.3,0.2-0.6,0.5-0.6h0.1L91.1,52.3z M94,64.9c0,0.5-0.3,0.6-0.6,0.6h-1v1.8h6v-1.8h-1.5v-7.8c1-0.7,2.1-1.1,3.3-1.2
	c1-0.2,2,0.5,2.1,1.6c0,0.2,0,0.4,0,0.6v6.8h-1.5v1.8h6v-1.8h-1c-0.4,0-0.6,0-0.6-0.6V58c0-2.8-1.7-3.8-3.7-3.8
	c-1.7,0.1-3.3,0.6-4.7,1.6v-1.3h-4.4v1.8h1c0.4,0,0.6,0,0.6,0.6L94,64.9z M112.7,65.5c-0.7,0-0.9-0.4-0.9-1.2v-9.7h-4.5v1.8h1
	c0.4,0,0.6,0.1,0.6,0.6v8c0,1.9,1,2.6,2.9,2.6c0.5,0,1.1-0.1,1.6-0.1v-1.9C113.3,65.5,112.7,65.5,112.7,65.5L112.7,65.5z
	 M108.8,51.9h3v-2.6h-3V51.9z M119.5,67.2h2.9l4.1-10.7c0.1-0.2,0.2-0.3,0.4-0.3h0.7v-1.8h-5.2v1.8h1.6l-2.8,7.8H121l-2.9-7.8h1.8
	v-1.8H114v1.8h0.7c0.2,0,0.4,0.1,0.5,0.3L119.5,67.2z M140,61.5h-8.5c0,2.7,1.2,3.9,3.5,3.9c1.2,0,2.9-0.3,3.5-2.1h1.3v3
	c-1.6,0.7-3.2,1.1-4.9,1.2c-4.1,0-6.4-2-6.4-6.7c0-4.4,2.3-6.6,6.1-6.6c4.5,0,5.5,3,5.5,6.2L140,61.5z M137.2,59.7
	c0-1.6-0.4-3.5-2.8-3.5c-2.1,0-3,1.5-3,3.5H137.2z M143.5,64.8c0,0.5-0.2,0.6-0.6,0.6h-1v1.8h6.1v-1.8h-1.6v-6.9
	c1.4-0.4,2.8-0.8,4.2-1.1v-3.1c-0.3,0-2.2,0.4-4.3,2.6v-2.3H142v1.8h1c0.4,0,0.6,0,0.6,0.6L143.5,64.8z M161.4,54.6
	c-1.3-0.3-2.6-0.5-3.9-0.5c-2.9,0-5.2,1-5.2,3.8c0,2.5,1.9,3.2,3.7,3.7c1.4,0.4,2.9,0.8,2.9,2.1c0,1.5-1.1,2-2.4,2
	c-1.2,0-2.3-0.7-2.7-1.9h-1.6v3c1.4,0.4,2.9,0.7,4.3,0.7c2.9,0,5.3-1.2,5.3-4.3c0-2.7-2-3.3-3.8-3.8c-1.5-0.4-2.9-0.6-2.9-1.9
	c0-0.9,0.8-1.6,2.1-1.6c1.1-0.1,2.2,0.5,2.7,1.5h1.4L161.4,54.6L161.4,54.6z M168.9,65.4c-0.7,0-0.9-0.4-0.9-1.2v-9.7h-4.5v1.8h1
	c0.4,0,0.6,0.1,0.6,0.6v8c0,1.9,1,2.6,2.9,2.6c0.5,0,1.1-0.1,1.6-0.1v-1.9C169.5,65.4,168.9,65.4,168.9,65.4L168.9,65.4z M165,51.9
	h3v-2.6h-3V51.9z M175,56.4h4v-2h-4v-3h-1.9c-0.3,1.9-0.8,3-2.5,3.4v1.6h1.5V64c0,2.8,1.9,3.5,3.6,3.5c1,0,2-0.1,3-0.4v-2.2
	c-0.6,0.2-1.2,0.3-1.8,0.3c-1.1,0-1.9-0.4-1.9-1.8L175,56.4z M185.6,67.2h1.3v0.2l-2.9,3.8V72h3.5l1.5-4.8l3.9-10.6
	c0.1-0.2,0.2-0.3,0.4-0.3h0.7v-1.8h-5.2v1.8h1.7l-3,8.4l-3-8.4h1.9v-1.8h-6v1.8h0.7c0.2,0,0.4,0.1,0.5,0.3L185.6,67.2z"/>
<path class="st1" d="M62,0H0c0,20.9,3.5,55.2,31,67.4C58.5,55.2,62,20.9,62,0z"/>
<path class="st0" d="M60.2,1.9C59.8,35.1,50,56.5,31,65.4C12,56.5,2.2,35.1,1.9,1.9H60.2z"/>
<path class="st2" d="M36.6,12.7c1.2,2.8,1.9,5.9,1.9,9c0,4.7-1.5,10.4-6.3,16.9c-2.1,2.8-6.8,8.2-7.1,12.5c1.1,2.4,2.6,4.6,4.4,6.4
	c0.3-4.2,5-9.6,7.1-12.4c4.7-6.3,6.3-12,6.3-16.8C42.8,22.5,40.6,16.9,36.6,12.7z"/>
<path class="st3" d="M37.1,15c0,2.9-1.4,7.6-7.2,14.3c-2,2.3-6.4,7.4-6.4,14.4c0,2.5,0.6,5,1.6,7.3c0,0-6-5.4-6-13.7
	c0-4.1,1.5-8.9,6-14.1c6.4-7.4,7.6-12.1,7.6-14.7c0.1-0.8-0.1-1.7-0.5-2.4C33.2,7.1,37.1,11.9,37.1,15z"/>
</svg>
