<?xml version="1.0" encoding="UTF-8" standalone="no"?>
<!-- Created with Inkscape (http://www.inkscape.org/) -->

<svg
   width="150mm"
   height="150mm"
   viewBox="0 0 150 150"
   version="1.1"
   id="svg11167"
   xml:space="preserve"
   inkscape:version="1.2 (dc2aedaf03, 2022-05-15)"
   sodipodi:docname="Logo.svg"
   inkscape:export-filename="Logo.png"
   inkscape:export-xdpi="96"
   inkscape:export-ydpi="96"
   xmlns:inkscape="http://www.inkscape.org/namespaces/inkscape"
   xmlns:sodipodi="http://sodipodi.sourceforge.net/DTD/sodipodi-0.dtd"
   xmlns="http://www.w3.org/2000/svg"
   xmlns:svg="http://www.w3.org/2000/svg"><sodipodi:namedview
     id="namedview11169"
     pagecolor="#ffffff"
     bordercolor="#000000"
     borderopacity="0.25"
     inkscape:showpageshadow="2"
     inkscape:pageopacity="0.0"
     inkscape:pagecheckerboard="0"
     inkscape:deskcolor="#d1d1d1"
     inkscape:document-units="mm"
     showgrid="false"
     inkscape:zoom="1.4912879"
     inkscape:cx="182.39268"
     inkscape:cy="293.0353"
     inkscape:window-width="1920"
     inkscape:window-height="1017"
     inkscape:window-x="1912"
     inkscape:window-y="-8"
     inkscape:window-maximized="1"
     inkscape:current-layer="layer1" /><defs
     id="defs11164"><linearGradient
       id="linearGradient985"
       inkscape:swatch="solid"><stop
         style="stop-color:#3f7652;stop-opacity:1;"
         offset="0"
         id="stop983" /></linearGradient></defs><g
     inkscape:label="Layer 1"
     inkscape:groupmode="layer"
     id="layer1"><path
       style="fill:#f5f5f5;fill-opacity:1;stroke-width:0.999999"
       d="m 60.507607,31.731461 c 7.4018,2.281734 11.1983,9.082826 9.0251,16.168232 -0.4896,1.596411 -0.6811,3.096691 -0.426,3.333957 0.2556,0.237265 4.1482,3.128384 8.6506,6.424688 l 8.1861,5.993282 2.4989,-1.636236 c 6.9843,-4.573065 16.248603,0.293623 16.457403,8.645486 0.193,7.695068 -7.614603,12.968548 -14.615803,9.872858 -5.3193,-2.351804 -7.7694,-7.895505 -5.9077,-13.366418 l 0.6674,-1.960972 -8.8052,-6.364896 -8.8052,-6.364931 -2.1363,1.596261 c -4.5391,3.391754 -10.7945,3.391265 -15.6513,-8.42e-4 l -1.5338,-1.071407 -2.0912,1.634039 c -1.6957,1.324902 -10.875,8.930295 -11.6519,9.653692 -0.114,0.10556 0.2228,1.205596 0.748,2.444501 1.2334,2.912509 1.239,5.305536 0.02,8.124034 -3.2224,7.445126 -13.82,8.638768 -18.3538,2.067247 -3.3029,-4.787753 -2.1263,-11.691375 2.5353,-14.875267 3.402,-2.32363 9.1328,-2.161813 12.7668,0.360503 0.7592,0.526907 2.0623,-0.323944 7.7884,-5.085518 l 6.8768,-5.71828 -1.1886,-3.393976 c -1.049,-2.994288 -1.1166,-3.749142 -0.5737,-6.410286 0.8137,-3.991163 3.0925,-7.142326 6.3454,-8.774118 2.8288,-1.419182 6.9062,-1.994753 9.1753,-1.295255 z"
       id="path7055-2"
       inkscape:label="Top" /><path
       style="fill:#3f7652;fill-opacity:1;stroke-width:1"
       d="m 87.634086,112.88339 c -7.356305,-2.36169 -11.017605,-9.14647 -8.703705,-16.129469 0.5213,-1.573334 0.7427,-3.055671 0.4922,-3.29408 -0.2508,-0.238408 -4.0859,-3.15437 -8.5227,-6.479882 l -8.0669,-6.046392 -2.5313,1.584751 c -7.0751,4.429146 -16.2425,-0.51714 -16.2854,-8.786913 -0.04,-7.619435 7.8722,-12.730392 14.8118,-9.568613 5.2724,2.402014 7.6123,7.92344 5.642,13.312712 l -0.7064,1.931709 8.6786,6.422862 8.6785,6.422884 2.168,-1.55023 c 4.606395,-3.293955 10.861695,-3.206276 15.650995,0.219395 l 1.512504,1.081886 2.1236,-1.588257 c 1.7219,-1.287778 11.0522,-8.687797 11.8434,-9.393005 0.1162,-0.102894 -0.1988,-1.196425 -0.6994,-2.430044 -1.1754,-2.900058 -1.1335,-5.268804 0.1417,-8.041612 3.3703,-7.324424 13.9915,-8.358182 18.3947,-1.790351 3.2077,4.785059 1.8939,11.602006 -2.8309,14.688503 -3.4481,2.252559 -9.1755,2.012501 -12.7594,-0.534796 -0.7487,-0.532125 -2.0687,0.291901 -7.8893,4.925185 l -6.9903,5.564212 1.1212,3.375998 c 0.9894,2.978429 1.042,3.726547 0.4463,6.353027 -0.893,3.9392 -3.2344,7.02652 -6.519604,8.59636 -2.857,1.3653 -6.9458,1.87817 -9.2009,1.15416 z"
       id="path7055"
       inkscape:label="Bottom" /><text
       xml:space="preserve"
       style="font-style:normal;font-variant:normal;font-weight:normal;font-stretch:normal;font-size:16.9333px;font-family:Georgia;-inkscape-font-specification:Georgia;opacity:0.51;fill:#f5f5f5;fill-opacity:1;stroke-width:0"
       x="81.058006"
       y="52.161289"
       id="text9142"><tspan
         sodipodi:role="line"
         id="tspan9140"
         x="81.058006"
         y="52.161289"
         style="font-style:normal;font-variant:normal;font-weight:normal;font-stretch:normal;font-size:16.9333px;font-family:Georgia;-inkscape-font-specification:Georgia;fill:#f5f5f5;fill-opacity:1;stroke-width:0" /></text></g></svg>
