<?xml version="1.0" encoding="UTF-8" standalone="no"?>
<!-- Created with Inkscape (http://www.inkscape.org/) -->

<svg
   width="300mm"
   height="300mm"
   viewBox="0 0 300 300"
   version="1.1"
   id="svg5"
   xml:space="preserve"
   inkscape:version="1.2 (dc2aedaf03, 2022-05-15)"
   sodipodi:docname="Logo.svg"
   inkscape:export-filename="Divide_Music_Logo.png"
   inkscape:export-xdpi="96"
   inkscape:export-ydpi="96"
   xmlns:inkscape="http://www.inkscape.org/namespaces/inkscape"
   xmlns:sodipodi="http://sodipodi.sourceforge.net/DTD/sodipodi-0.dtd"
   xmlns:xlink="http://www.w3.org/1999/xlink"
   xmlns="http://www.w3.org/2000/svg"
   xmlns:svg="http://www.w3.org/2000/svg"><sodipodi:namedview
     id="namedview7"
     pagecolor="#ffffff"
     bordercolor="#000000"
     borderopacity="0.25"
     inkscape:showpageshadow="2"
     inkscape:pageopacity="0.0"
     inkscape:pagecheckerboard="0"
     inkscape:deskcolor="#d1d1d1"
     inkscape:document-units="mm"
     showgrid="false"
     inkscape:zoom="0.52724988"
     inkscape:cx="353.72222"
     inkscape:cy="669.51177"
     inkscape:window-width="1920"
     inkscape:window-height="1017"
     inkscape:window-x="-8"
     inkscape:window-y="-6"
     inkscape:window-maximized="1"
     inkscape:current-layer="layer1" /><defs
     id="defs2"><linearGradient
       id="linearGradient14196"
       inkscape:swatch="solid"><stop
         style="stop-color:#e8e8e8;stop-opacity:1;"
         offset="0"
         id="stop14194" /></linearGradient><linearGradient
       inkscape:collect="always"
       id="linearGradient9923"><stop
         style="stop-color:#e8e8e8;stop-opacity:1;"
         offset="0"
         id="stop9919" /><stop
         style="stop-color:#e550ed;stop-opacity:0.97653961;"
         offset="0.67139959"
         id="stop9921" /></linearGradient><linearGradient
       inkscape:collect="always"
       id="linearGradient8422"><stop
         style="stop-color:#100410;stop-opacity:1;"
         offset="0"
         id="stop8418" /><stop
         style="stop-color:#100410;stop-opacity:0;"
         offset="1"
         id="stop8420" /></linearGradient><linearGradient
       inkscape:collect="always"
       xlink:href="#linearGradient8422"
       id="linearGradient8424"
       x1="473.71591"
       y1="590.13763"
       x2="2238.312"
       y2="2802.9084"
       gradientUnits="userSpaceOnUse"
       gradientTransform="scale(1,1.25)" /><linearGradient
       inkscape:collect="always"
       xlink:href="#linearGradient9923"
       id="linearGradient9925"
       x1="-42.538952"
       y1="274.79041"
       x2="198.71471"
       y2="274.79041"
       gradientUnits="userSpaceOnUse" /><linearGradient
       inkscape:collect="always"
       xlink:href="#linearGradient9923"
       id="linearGradient9960"
       gradientUnits="userSpaceOnUse"
       x1="-42.538952"
       y1="274.79041"
       x2="198.71471"
       y2="274.79041"
       gradientTransform="translate(89.684818,281.60742)" /><linearGradient
       id="linearGradient985"
       inkscape:swatch="solid"><stop
         style="stop-color:#3f7652;stop-opacity:1;"
         offset="0"
         id="stop983" /></linearGradient></defs><g
     inkscape:label="Layer 1"
     inkscape:groupmode="layer"
     id="layer1"><rect
       style="display:none;fill:url(#linearGradient8424);fill-opacity:1;stroke-width:0"
       id="rect789"
       width="1600"
       height="2500"
       x="0"
       y="1.1368684e-13"
       ry="62.636326" /><g
       id="g4804"
       inkscape:label="Logo"
       transform="matrix(0.53567001,0,0,0.58288404,-20.123753,-7.3793909)"><rect
         style="fill:url(#linearGradient9960);fill-opacity:1;stroke-width:0"
         id="rect9917-1"
         width="241.25366"
         height="10.137786"
         x="47.145866"
         y="551.32898"
         transform="rotate(-30.879921)" /><path
         style="font-size:70.5556px;font-family:Georgia;-inkscape-font-specification:Georgia;text-align:center;text-anchor:middle;fill:#eebbee;fill-opacity:0.862745;stroke-width:0"
         d="m 45.406135,475.0861 c -0.819479,0.44192 -1.633117,0.89377 -2.455538,1.33082 -2.442686,1.30356 -4.930822,2.5248 -7.385459,3.80704 l 8.545672,-1.3e-4 z"
         transform="rotate(-31.19284)"
         id="path10001" /><path
         style="font-size:70.5556px;font-family:Georgia;-inkscape-font-specification:Georgia;text-align:center;text-anchor:middle;fill:#eebbee;fill-opacity:0.862745;stroke-width:0"
         d="m 63.610022,464.94786 c -2.518322,1.28294 -4.988465,2.66131 -7.401724,4.15121 -0.688279,0.39346 -1.382695,0.77492 -2.072547,1.16519 l -2.9e-5,9.95978 9.474285,-3.2e-4 z"
         transform="rotate(-31.19284)"
         id="path9999" /><path
         style="font-size:70.5556px;font-family:Georgia;-inkscape-font-specification:Georgia;text-align:center;text-anchor:middle;fill:#eebbee;fill-opacity:0.862745;stroke-width:0"
         d="m 63.610053,429.7186 -15.296508,1.7e-4 -9.06025,34.45089 -9.164164,-34.45099 -15.261944,-5e-5 -4.6e-5,50.50512 8.346266,-5e-5 c 0.375875,-0.19357 0.7541,-0.3823 1.127681,-0.58041 l 2.13e-4,-39.17573 8.638132,34.37293 c 2.393293,-1.24227 4.815825,-2.43136 7.193518,-3.70155 2.435881,-1.29281 4.854824,-2.61427 7.264973,-3.95128 l 6.737938,-26.71993 -2.36e-4,22.91215 c 3.078457,-1.84915 6.241944,-3.53083 9.474552,-5.07641 z"
         transform="rotate(-31.19284)"
         id="path9997" /><path
         style="font-size:70.5556px;font-family:Georgia;-inkscape-font-specification:Georgia;text-align:center;text-anchor:middle;fill:#eebbee;fill-opacity:0.862745;stroke-width:0"
         d="m 83.867171,429.71886 -10.197642,-2.7e-4 -2.07e-4,23.96873 c 3.385938,-1.57289 6.778426,-3.13137 10.197905,-4.6318 z"
         transform="rotate(-31.19284)"
         id="path9995" /><path
         style="font-size:70.5556px;font-family:Georgia;-inkscape-font-specification:Georgia;text-align:center;text-anchor:middle;fill:#eebbee;fill-opacity:0.862745;stroke-width:0"
         d="m 113.94252,442.08878 c -3.39683,1.5939 -6.78481,3.20567 -10.19755,4.76492 l -4e-5,10.8049 c 0,3.99631 -0.14889,6.85599 -0.44747,8.57853 -0.29857,1.72255 -1.18312,3.18062 -2.65302,4.37492 -1.46991,1.17133 -3.651641,1.75723 -6.54552,1.75723 -2.847945,0 -5.098705,-0.62006 -6.75235,-1.8603 -1.630678,-1.2632 -2.664048,-2.92846 -3.100426,-4.99551 -0.25264,-1.28617 -0.379157,-4.09967 -0.379157,-8.44049 l -1.02e-4,-1.45956 c -3.394322,1.51855 -6.773131,3.07063 -10.14432,4.64008 0.116144,3.8981 0.429705,6.97884 0.945893,9.22159 0.459346,1.95222 1.412694,3.82427 2.859634,5.61572 1.446939,1.76849 3.410544,3.21518 5.891012,4.34057 2.503435,1.10243 6.166941,1.65382 10.990073,1.65382 3.996309,0 7.234733,-0.50517 9.715203,-1.51573 2.48047,-1.03353 4.45534,-2.41161 5.92525,-4.13415 1.49287,-1.72255 2.51539,-3.83571 3.0666,-6.33915 0.55122,-2.50343 0.82641,-6.78688 0.82641,-12.85025 z"
         transform="rotate(-31.19284)"
         id="path9993" /><path
         style="font-size:70.5556px;font-family:Georgia;-inkscape-font-specification:Georgia;text-align:center;text-anchor:middle;fill:#eebbee;fill-opacity:0.862745;stroke-width:0"
         d="m 113.94288,429.71885 -10.19764,-2.8e-4 -3.3e-4,10.54497 c 2.96476,-1.38846 5.92174,-2.79355 8.88975,-4.17636 0.43255,-0.23945 0.87242,-0.46409 1.30823,-0.69704 z"
         transform="rotate(-31.19284)"
         id="path9991" /><path
         style="font-size:70.5556px;font-family:Georgia;-inkscape-font-specification:Georgia;text-align:center;text-anchor:middle;fill:#eebbee;fill-opacity:0.862745;stroke-width:0"
         d="m 154.70037,431.60946 c -3.07322,-1.8346 -7.18529,-2.75185 -12.33571,-2.75185 -0.58625,0 -1.15785,0.0148 -1.71843,0.0415 -0.24328,0.13187 -0.48677,0.2632 -0.7299,0.39536 -4.08241,2.02974 -8.16677,4.05231 -12.33442,5.90265 -0.54652,0.28131 -1.1001,0.54798 -1.64915,0.82409 -1.33153,2.15059 -1.99916,4.45921 -1.99916,6.92683 0,3.99631 1.55006,7.38376 4.65064,10.1628 2.20487,1.97519 6.0403,3.64038 11.50652,4.99545 4.24895,1.05649 6.97068,1.7917 8.16498,2.20511 1.74552,0.62012 2.96309,1.35474 3.65211,2.20453 0.71199,0.82682 1.0676,1.83766 1.0676,3.03196 0,1.86035 -0.8381,3.4908 -2.51471,4.8918 -1.65365,1.37804 -4.12236,2.06708 -7.40669,2.06708 -3.10058,0 -5.56966,-0.78069 -7.40704,-2.34247 -1.81442,-1.56177 -3.02034,-4.00809 -3.61749,-7.33834 l -9.92171,0.9648 c 0.66605,5.64996 2.71003,9.95642 6.13216,12.9192 3.42212,2.93981 8.32579,4.40969 14.7107,4.40969 4.38675,0 8.04999,-0.6087 10.9898,-1.82596 2.93982,-1.24024 5.21349,-3.12347 6.8212,-5.64987 1.60771,-2.52641 2.41147,-5.23678 2.41147,-8.13066 0,-3.19246 -0.6778,-5.868 -2.03287,-8.02693 -1.3321,-2.18189 -3.19225,-3.89299 -5.58084,-5.13323 -2.36564,-1.2632 -6.02878,-2.48062 -10.98971,-3.65195 -4.96094,-1.17133 -8.08431,-2.29651 -9.37048,-3.37597 -1.01056,-0.84979 -1.51626,-1.8719 -1.51626,-3.0662 0,-1.30914 0.5402,-2.35422 1.61967,-3.13511 1.67661,-1.21726 3.99591,-1.82603 6.95869,-1.82603 2.87091,0 5.01839,0.57438 6.44236,1.72275 1.44694,1.1254 2.38874,2.98563 2.82512,5.58094 l 10.19748,-0.44747 c -0.16077,-4.63939 -1.84888,-8.34885 -5.0643,-11.12789 -0.59858,-0.52107 -1.25243,-0.99326 -1.96163,-1.41663 z"
         transform="rotate(-31.19284)"
         id="path9989" /><path
         style="font-size:70.5556px;font-family:Georgia;-inkscape-font-specification:Georgia;text-align:center;text-anchor:middle;fill:#eebbee;fill-opacity:0.862745;stroke-width:0"
         d="m 181.63905,429.71859 -10.19791,1.7e-4 3.9e-4,50.50538 10.19747,-4.4e-4 z"
         transform="rotate(-31.19284)"
         id="path9987" /><path
         style="font-size:70.5556px;font-family:Georgia;-inkscape-font-specification:Georgia;text-align:center;text-anchor:middle;fill:#eebbee;fill-opacity:0.862745;stroke-width:0"
         d="m 43.361266,344.20282 c -1.268943,-0.77515 -2.644194,-1.38124 -4.125584,-1.81762 -2.204861,-0.64309 -5.408595,-0.96421 -9.61161,-0.96421 l -18.638293,10e-6 2.22e-4,50.50468 19.189186,6e-5 c 3.766637,0 6.77524,-0.35593 9.026035,-1.06791 3.008716,-0.96463 5.397637,-2.30792 7.166119,-4.03047 2.342664,-2.27376 4.145192,-5.24809 5.408393,-8.92286 1.033528,-3.00871 1.550577,-6.59163 1.550577,-10.74871 0,-4.73127 -0.551067,-8.70479 -1.653497,-11.92022 -1.102431,-3.23838 -2.710258,-5.97163 -4.823249,-8.19946 -1.056496,-1.11392 -2.219355,-2.05814 -3.488299,-2.83329 z m -6.040302,7.46316 c 0.558751,0.33267 1.070674,0.71893 1.535761,1.15818 1.240234,1.17133 2.204616,2.80204 2.893635,4.89206 0.689019,2.09002 1.033842,5.08707 1.033842,8.99151 0,3.90444 -0.344712,6.99371 -1.033731,9.26747 -0.689019,2.25079 -1.584341,3.8701 -2.686771,4.8577 -1.079463,0.98759 -2.446487,1.68806 -4.100133,2.10148 -1.263201,0.32154 -3.31821,0.4821 -6.166155,0.4821 l -7.614044,-4e-5 3.69e-4,-33.4518 4.581561,-1.1e-4 c 4.157081,0 6.947926,0.1609 8.371899,0.48244 1.191428,0.25839 2.252515,0.66457 3.183767,1.21901 z"
         transform="rotate(-31.19284)"
         id="path9985" /><path
         style="font-size:70.5556px;font-family:Georgia;-inkscape-font-specification:Georgia;text-align:center;text-anchor:middle;fill:#eebbee;fill-opacity:0.862745;stroke-width:0"
         d="m 71.861093,341.42068 -10.197909,1.7e-4 -4.6e-5,50.50512 10.197909,-1.7e-4 z"
         transform="rotate(-31.19284)"
         id="path9983" /><path
         style="font-size:70.5556px;font-family:Georgia;-inkscape-font-specification:Georgia;text-align:center;text-anchor:middle;fill:#eebbee;fill-opacity:0.862745;stroke-width:0"
         d="m 225.13967,431.9386 c -3.32883,-2.05414 -7.31,-3.08112 -11.94365,-3.08112 -7.07392,0 -12.78123,2.33109 -17.12205,6.99345 -4.34082,4.63939 -6.51144,11.16196 -6.51144,19.56799 0,7.94669 2.1589,14.21714 6.47675,18.8106 4.31785,4.57049 9.83016,6.85568 16.53661,6.85568 5.42028,0 9.88756,-1.3322 13.40156,-3.9964 3.53696,-2.68718 6.06336,-6.78662 7.5792,-12.29877 l -9.88777,-3.13521 c -0.84979,3.69773 -2.25081,6.40777 -4.20303,8.13032 -1.95222,1.72255 -4.28322,2.58373 -6.99336,2.58373 -3.67477,0 -6.66022,-1.35483 -8.95695,-4.06497 -2.29673,-2.71015 -3.44526,-7.25746 -3.44526,-13.64236 0,-6.01744 1.15973,-10.37032 3.47943,-13.05749 2.34267,-2.68717 5.38585,-4.03059 9.12952,-4.03059 2.71014,0 5.00714,0.75791 6.89046,2.27375 1.90628,1.51584 3.15782,3.58304 3.75497,6.20131 l 10.09403,-2.41181 c -1.14837,-4.04224 -2.87112,-7.14264 -5.16785,-9.30157 -0.96463,-0.91295 -2.00157,-1.71183 -3.11117,-2.39654 z"
         transform="rotate(-31.19284)"
         id="path9981" /><path
         style="font-size:70.5556px;font-family:Georgia;-inkscape-font-specification:Georgia;text-align:center;text-anchor:middle;fill:#eebbee;fill-opacity:0.862745;stroke-width:0"
         d="m 123.43414,341.42092 -10.81766,9e-5 -12.36801,37.37886 -12.781125,-37.37909 -11.058813,2.7e-4 18.052347,50.50498 10.886521,-8e-5 z"
         transform="rotate(-31.19284)"
         id="path9979" /><path
         style="font-size:70.5556px;font-family:Georgia;-inkscape-font-specification:Georgia;text-align:center;text-anchor:middle;fill:#eebbee;fill-opacity:0.862745;stroke-width:0"
         d="m 138.52335,341.4209 -10.1972,-1e-5 -4e-5,50.50512 h 10.1972 z"
         transform="rotate(-31.19284)"
         id="path9977" /><path
         style="font-size:70.5556px;font-family:Georgia;-inkscape-font-specification:Georgia;text-align:center;text-anchor:middle;fill:#eebbee;fill-opacity:0.862745;stroke-width:0"
         d="m 237.60443,383.4165 -24.46539,-6e-5 c -4.13648,2.86343 -8.28971,5.70481 -12.46546,8.50974 l 36.93113,-1.7e-4 z"
         transform="rotate(-31.19284)"
         id="path9975" /><path
         style="font-size:70.5556px;font-family:Georgia;-inkscape-font-specification:Georgia;text-align:center;text-anchor:middle;fill:#eebbee;fill-opacity:0.862745;stroke-width:0"
         d="m 180.57944,344.20287 c -1.26894,-0.77515 -2.64419,-1.38125 -4.12558,-1.81762 -2.20486,-0.64309 -5.40859,-0.96421 -9.61161,-0.96421 l -18.63802,-4.3e-4 -5e-5,50.50512 19.18919,6e-5 c 3.76663,0 6.77524,-0.35593 9.02603,-1.06792 3.00872,-0.96462 5.39764,-2.30791 7.16612,-4.03046 2.34266,-2.27376 4.14519,-5.24809 5.40839,-8.92286 1.03353,-3.00871 1.55058,-6.59164 1.55058,-10.74872 0,-4.73126 -0.55107,-8.70479 -1.6535,-11.92021 -1.10243,-3.23839 -2.71026,-5.97164 -4.82325,-8.19946 -1.05649,-1.11392 -2.21935,-2.05815 -3.4883,-2.83329 z m -6.0403,7.46316 c 0.55875,0.33267 1.07068,0.71893 1.53576,1.15818 1.24024,1.17133 2.20533,2.80186 2.89435,4.89188 0.68902,2.09003 1.03313,5.08725 1.03313,8.99169 0,3.90444 -0.34471,6.9937 -1.03373,9.26747 -0.68902,2.25079 -1.58434,3.8701 -2.68677,4.85769 -1.07946,0.9876 -2.44622,1.68763 -4.09987,2.10104 -1.2632,0.32154 -3.31847,0.48255 -6.16642,0.48255 l -7.61404,-5e-5 3.7e-4,-33.45179 4.58156,-1.1e-4 c 4.15708,0 6.94792,0.1609 8.37189,0.48244 1.19143,0.25838 2.25252,0.66456 3.18377,1.21901 z"
         transform="rotate(-31.19284)"
         id="path9973" /><path
         style="font-size:70.5556px;font-family:Georgia;-inkscape-font-specification:Georgia;text-align:center;text-anchor:middle;fill:#eebbee;fill-opacity:0.862745;stroke-width:0"
         d="m 234.74545,369.2598 c -0.23026,0.13748 -0.46258,0.27164 -0.69195,0.41049 l 0.69163,1.1e-4 z"
         transform="rotate(-31.19284)"
         id="path9971" /><path
         style="font-size:70.5556px;font-family:Georgia;-inkscape-font-specification:Georgia;text-align:center;text-anchor:middle;fill:#eebbee;fill-opacity:0.862745;stroke-width:0"
         d="m 236.63998,341.42094 -37.44817,5e-5 -1e-4,44.29011 c 3.41135,-2.30643 6.81159,-4.63038 10.19761,-6.97408 l -1.7e-4,-9.06644 13.98255,-10e-5 c 3.58662,-2.77679 7.45389,-5.09769 11.37347,-7.3447 l 1.3e-4,-1.16462 -25.35598,1.8e-4 -2.6e-4,-11.19654 27.25097,-5e-5 z"
         transform="rotate(-31.19284)"
         id="text9316" /><path
         style="fill:#e8e8e8;fill-opacity:1;stroke-width:3.10766"
         d="M 317.57286,12.660209 C 184.76154,12.748858 75.222124,92.338271 43.116748,212.07594 c -7.994124,29.81424 -7.230785,90.62538 1.512052,120.4402 18.655154,63.61763 61.28514,116.91619 117.37992,151.58816 -0.58503,-0.8914 -1.12529,-1.81298 -1.56735,-2.80086 -3.52802,-7.88415 -5.22332,-15.06089 -5.50302,-21.3279 -31.84169,-23.03202 -58.127788,-52.5501 -75.345792,-86.02369 -0.751699,-1.46138 -1.480195,-2.92639 -2.197282,-4.39301 -9.807784,-2.94067 -19.317183,-13.01128 -23.1066,-31.43529 -1.335175,-6.49159 -1.918995,-13.08811 -1.47898,-19.71715 0.218922,-4.99578 0.497355,-9.98945 0.861963,-14.97686 0.251986,-3.25077 0.574423,-6.49646 1.09399,-9.71052 -1.677107,-1.72681 -1.960203,-4.28626 -0.189135,-8.03568 -4.401666,-61.68295 17.290177,-122.11581 58.898726,-169.12301 -0.53072,-8.05909 2.41493,-17.91559 10.4588,-28.484052 1.73464,-2.279041 3.28545,-4.559452 4.963,-6.875033 1.63592,-2.253864 3.61281,-4.2175 5.60069,-6.154146 10.32841,-10.061935 20.74029,-14.141414 29.48192,-14.093714 4.99623,0.02726 9.44406,1.405854 13.02195,3.783232 23.05345,-13.39556 48.87488,-23.799297 77.07488,-30.405896 17.65803,-4.136834 40.57834,-6.205823 63.4969,-6.205823 15.18698,0 30.33895,0.928463 43.99525,2.745052 6.46144,-3.497077 12.36245,-5.075877 17.54415,-5.190381 10.7094,-0.236651 18.34552,5.774421 21.5191,13.988294 23.16264,7.197489 44.85396,17.186701 64.62448,29.553752 5.17487,1.101659 10.40895,4.378908 14.92777,10.056233 16.92513,12.251357 32.18652,26.345912 45.44684,41.994332 2.28295,1.50329 4.58108,3.00285 6.89466,4.46847 2.5388,1.52546 5.19823,2.8411 7.77421,4.30671 0.5091,0.32002 1.01794,0.64012 1.52704,0.96015 13.28312,8.34981 11.45823,13.63854 3.87469,17.52864 12.32157,19.419 21.90005,40.56595 28.2174,63.03026 9.29723,33.06142 9.25922,83.38176 -0.0842,116.20221 -4.15513,14.59314 -9.64692,28.60406 -16.31942,41.93646 5.401,10.42015 -0.14452,25.31809 -20.82301,34.2191 -29.27619,40.30949 -70.73559,71.74175 -119.59115,90.05445 -0.83639,1.3568 -1.72851,2.68687 -2.67116,3.99304 -4.52508,5.88751 -10.72731,9.48453 -17.35656,12.46126 -5.3911,2.14933 -11.14594,2.50462 -16.87081,2.50062 -2.4767,-0.0991 -4.93404,0.004 -7.40213,0.16536 -3.75355,0.19386 -3.05025,0.17299 -5.61051,0.67025 -2.00145,0.43925 -4.03291,0.71124 -6.06216,0.98185 -13.01328,1.73538 -23.1085,-0.30352 -30.08344,-4.38475 -25.61579,0.7419 -53.81483,-0.57293 -70.44221,-3.92947 -12.27893,-2.47862 -24.34543,-5.83606 -36.09702,-9.98492 -1.2139,5.76374 -4.67446,10.45144 -9.63714,13.26585 22.55829,8.19493 46.43917,13.70502 71.17705,16.12409 h 5.2e-4 c 139.83356,13.6733 267.40129,-67.31924 304.49718,-193.32567 9.46283,-32.14228 9.42169,-93.69253 -0.0868,-126.0104 C 556.03056,89.482364 447.76305,12.573345 317.57286,12.660209 Z"
         id="path9637" /><rect
         style="fill:url(#linearGradient9925);fill-opacity:1;stroke-width:0"
         id="rect9917"
         width="241.25366"
         height="10.137786"
         x="-42.538952"
         y="269.72153"
         transform="rotate(-30.879921)" /></g><g
       inkscape:label="Layer 1"
       id="layer1-6"
       transform="matrix(1.2527775,0,0,1.319093,1410.9287,-19.83797)"
       style="display:none;fill:#986998;fill-opacity:0.862745"><path
         style="fill:#986998;fill-opacity:0.862745;stroke-width:0.999999"
         d="m 60.507607,31.731461 c 7.4018,2.281734 11.1983,9.082826 9.0251,16.168232 -0.4896,1.596411 -0.6811,3.096691 -0.426,3.333957 0.2556,0.237265 4.1482,3.128384 8.6506,6.424688 l 8.1861,5.993282 2.4989,-1.636236 c 6.9843,-4.573065 16.248603,0.293623 16.457403,8.645486 0.193,7.695068 -7.614603,12.968548 -14.615803,9.872858 -5.3193,-2.351804 -7.7694,-7.895505 -5.9077,-13.366418 l 0.6674,-1.960972 -8.8052,-6.364896 -8.8052,-6.364931 -2.1363,1.596261 c -4.5391,3.391754 -10.7945,3.391265 -15.6513,-8.42e-4 l -1.5338,-1.071407 -2.0912,1.634039 c -1.6957,1.324902 -10.875,8.930295 -11.6519,9.653692 -0.114,0.10556 0.2228,1.205596 0.748,2.444501 1.2334,2.912509 1.239,5.305536 0.02,8.124034 -3.2224,7.445126 -13.82,8.638768 -18.3538,2.067247 -3.3029,-4.787753 -2.1263,-11.691375 2.5353,-14.875267 3.402,-2.32363 9.1328,-2.161813 12.7668,0.360503 0.7592,0.526907 2.0623,-0.323944 7.7884,-5.085518 l 6.8768,-5.71828 -1.1886,-3.393976 c -1.049,-2.994288 -1.1166,-3.749142 -0.5737,-6.410286 0.8137,-3.991163 3.0925,-7.142326 6.3454,-8.774118 2.8288,-1.419182 6.9062,-1.994753 9.1753,-1.295255 z"
         id="path7055-2"
         inkscape:label="Top" /><path
         style="fill:#986998;fill-opacity:0.862745;stroke-width:1"
         d="m 87.634086,112.88339 c -7.356305,-2.36169 -11.017605,-9.14647 -8.703705,-16.129469 0.5213,-1.573334 0.7427,-3.055671 0.4922,-3.29408 -0.2508,-0.238408 -4.0859,-3.15437 -8.5227,-6.479882 l -8.0669,-6.046392 -2.5313,1.584751 c -7.0751,4.429146 -16.2425,-0.51714 -16.2854,-8.786913 -0.04,-7.619435 7.8722,-12.730392 14.8118,-9.568613 5.2724,2.402014 7.6123,7.92344 5.642,13.312712 l -0.7064,1.931709 8.6786,6.422862 8.6785,6.422884 2.168,-1.55023 c 4.606395,-3.293955 10.861695,-3.206276 15.650995,0.219395 l 1.512504,1.081886 2.1236,-1.588257 c 1.7219,-1.287778 11.0522,-8.687797 11.8434,-9.393005 0.1162,-0.102894 -0.1988,-1.196425 -0.6994,-2.430044 -1.1754,-2.900058 -1.1335,-5.268804 0.1417,-8.041612 3.3703,-7.324424 13.9915,-8.358182 18.3947,-1.790351 3.2077,4.785059 1.8939,11.602006 -2.8309,14.688503 -3.4481,2.252559 -9.1755,2.012501 -12.7594,-0.534796 -0.7487,-0.532125 -2.0687,0.291901 -7.8893,4.925185 l -6.9903,5.564212 1.1212,3.375998 c 0.9894,2.978429 1.042,3.726547 0.4463,6.353027 -0.893,3.9392 -3.2344,7.02652 -6.519604,8.59636 -2.857,1.3653 -6.9458,1.87817 -9.2009,1.15416 z"
         id="path7055"
         inkscape:label="Bottom" /><text
         xml:space="preserve"
         style="font-style:normal;font-variant:normal;font-weight:normal;font-stretch:normal;font-size:16.9333px;font-family:Georgia;-inkscape-font-specification:Georgia;opacity:0.51;fill:#986998;fill-opacity:0.862745;stroke-width:0"
         x="81.058006"
         y="52.161289"
         id="text9142"><tspan
           sodipodi:role="line"
           id="tspan9140"
           x="81.058006"
           y="52.161289"
           style="font-style:normal;font-variant:normal;font-weight:normal;font-stretch:normal;font-size:16.9333px;font-family:Georgia;-inkscape-font-specification:Georgia;fill:#986998;fill-opacity:0.862745;stroke-width:0" /></text></g><g
       inkscape:label="Layer 1"
       id="layer1-8"
       transform="matrix(0.77780035,0,0,0.77780035,145.51388,3.8492355)"><path
         style="fill:#f5f5f5;fill-opacity:1;stroke-width:0.999999"
         d="m 60.507607,31.731461 c 7.4018,2.281734 11.1983,9.082826 9.0251,16.168232 -0.4896,1.596411 -0.6811,3.096691 -0.426,3.333957 0.2556,0.237265 4.1482,3.128384 8.6506,6.424688 l 8.1861,5.993282 2.4989,-1.636236 c 6.9843,-4.573065 16.248603,0.293623 16.457403,8.645486 0.193,7.695068 -7.614603,12.968548 -14.615803,9.872858 -5.3193,-2.351804 -7.7694,-7.895505 -5.9077,-13.366418 l 0.6674,-1.960972 -8.8052,-6.364896 -8.8052,-6.364931 -2.1363,1.596261 c -4.5391,3.391754 -10.7945,3.391265 -15.6513,-8.42e-4 l -1.5338,-1.071407 -2.0912,1.634039 c -1.6957,1.324902 -10.875,8.930295 -11.6519,9.653692 -0.114,0.10556 0.2228,1.205596 0.748,2.444501 1.2334,2.912509 1.239,5.305536 0.02,8.124034 -3.2224,7.445126 -13.82,8.638768 -18.3538,2.067247 -3.3029,-4.787753 -2.1263,-11.691375 2.5353,-14.875267 3.402,-2.32363 9.1328,-2.161813 12.7668,0.360503 0.7592,0.526907 2.0623,-0.323944 7.7884,-5.085518 l 6.8768,-5.71828 -1.1886,-3.393976 c -1.049,-2.994288 -1.1166,-3.749142 -0.5737,-6.410286 0.8137,-3.991163 3.0925,-7.142326 6.3454,-8.774118 2.8288,-1.419182 6.9062,-1.994753 9.1753,-1.295255 z"
         id="path7055-2-1"
         inkscape:label="Top" /><path
         style="fill:#efbbef;fill-opacity:0.862745;stroke-width:1"
         d="m 87.634086,112.88339 c -7.356305,-2.36169 -11.017605,-9.14647 -8.703705,-16.129469 0.5213,-1.573334 0.7427,-3.055671 0.4922,-3.29408 -0.2508,-0.238408 -4.0859,-3.15437 -8.5227,-6.479882 l -8.0669,-6.046392 -2.5313,1.584751 c -7.0751,4.429146 -16.2425,-0.51714 -16.2854,-8.786913 -0.04,-7.619435 7.8722,-12.730392 14.8118,-9.568613 5.2724,2.402014 7.6123,7.92344 5.642,13.312712 l -0.7064,1.931709 8.6786,6.422862 8.6785,6.422884 2.168,-1.55023 c 4.606395,-3.293955 10.861695,-3.206276 15.650995,0.219395 l 1.512504,1.081886 2.1236,-1.588257 c 1.7219,-1.287778 11.0522,-8.687797 11.8434,-9.393005 0.1162,-0.102894 -0.1988,-1.196425 -0.6994,-2.430044 -1.1754,-2.900058 -1.1335,-5.268804 0.1417,-8.041612 3.3703,-7.324424 13.9915,-8.358182 18.3947,-1.790351 3.2077,4.785059 1.8939,11.602006 -2.8309,14.688503 -3.4481,2.252559 -9.1755,2.012501 -12.7594,-0.534796 -0.7487,-0.532125 -2.0687,0.291901 -7.8893,4.925185 l -6.9903,5.564212 1.1212,3.375998 c 0.9894,2.978429 1.042,3.726547 0.4463,6.353027 -0.893,3.9392 -3.2344,7.02652 -6.519604,8.59636 -2.857,1.3653 -6.9458,1.87817 -9.2009,1.15416 z"
         id="path7055-0"
         inkscape:label="Bottom" /><text
         xml:space="preserve"
         style="font-style:normal;font-variant:normal;font-weight:normal;font-stretch:normal;font-size:16.9333px;font-family:Georgia;-inkscape-font-specification:Georgia;opacity:0.51;fill:#f5f5f5;fill-opacity:1;stroke-width:0"
         x="81.058006"
         y="52.161289"
         id="text9142-4"><tspan
           sodipodi:role="line"
           id="tspan9140-2"
           x="81.058006"
           y="52.161289"
           style="font-style:normal;font-variant:normal;font-weight:normal;font-stretch:normal;font-size:16.9333px;font-family:Georgia;-inkscape-font-specification:Georgia;fill:#f5f5f5;fill-opacity:1;stroke-width:0" /></text></g></g></svg>
